<svg xmlns="http://www.w3.org/2000/svg" viewBox="0 0 512 512">
  <style>
    path { fill: #000; }
    @media (prefers-color-scheme: dark) { path { fill: #fff; } }
  </style>
  <defs>
    <linearGradient id="godui-sunglasses" x1="0" y1="0" x2="1" y2="0">
      <stop offset="0%" stop-color="#ff3b30" />
      <stop offset="20%" stop-color="#ff9500" />
      <stop offset="40%" stop-color="#ffcc00" />
      <stop offset="60%" stop-color="#34c759" />
      <stop offset="80%" stop-color="#007aff" />
      <stop offset="100%" stop-color="#af52de" />
    </linearGradient>
  </defs>
  <path d="M217 16.6c-46.9 5.9-90.7 37.7-111.5 80.9-8.2 17.2-14 41.4-16.5 69.5-1.4 15.7-1.8 18.5-4.1 26-3 9.6-7.4 17.1-14.8 25.6-3.6 4.1-8 9.5-9.8 12-3.1 4.4-5.7 13.3-5.1 17.6.2 1.8.9 1.2 4-3.5 3.7-5.5 7.2-8.7 19.8-17.7 3.4-2.4 8.4-6.9 11.1-9.8 2.8-3 5.2-5.2 5.6-4.9.3.3-1.1 3.9-3.1 7.9-3.5 7.2-7.3 12.4-20.9 29-8 9.7-12.5 17.6-15.8 27.3-2.1 6-2.4 8.9-2.4 20 .1 12 .4 13.8 3.3 22.5 4.1 12 13.1 29.7 13.1 25.9.1-3.5 3-19.9 3.8-21.2.9-1.4 2 1 3.6 8.3 2.5 10.9 2.9 16.4 1.7 23-2.4 13.3-10.3 23.9-21.8 29.3-5.8 2.7-7.7 3.1-14.9 3h-8.2l2 2.9c3 4.2 10.3 9.4 16.7 11.9 4.2 1.6 8.6 2.4 16.5 2.7l10.7.4-3.6 4c-9.5 10.5-13.9 22.2-13.2 34.7.6 10.4 3.9 17.4 12 25.4 10 9.9 24.3 15.6 39.1 15.7h5.9l-3.1-2.5c-12.3-10.4-9.9-23.6 6.3-35.2 13.5-9.6 21.9-20.4 26.3-33.7 2.5-7.5 2.7-9.4 2.7-24.8 0-9.3.2-16.8.6-16.8.3 0 2.5 3.9 4.9 8.7 16.6 33.6 37.6 59.3 58.3 71.1 23 13.2 56.3 14 80.3 2 15.5-7.8 31.3-23.1 44.9-43.5 8.3-12.6 19.7-32.7 21.1-37.1 1.5-5 2-1.3 2 15 .1 16.1.3 17.9 2.8 25.4 3.6 10.8 8.6 18 20.2 29.4 14 13.7 17 21 12.5 30.9-1.1 2.4-3.6 5.9-5.6 7.7l-3.5 3.4h4.8c11.7-.1 23.6-4.8 32.5-12.9 13-11.9 16-30.4 7.7-47.7-1.6-3.4-2.9-6.4-2.9-6.7s1.7.1 3.8 1.1c2.6 1.1 6.7 1.6 13.7 1.7 8.9 0 10.6-.3 15.5-2.7 6-2.9 8.3-4.7 11.8-9.2 3-4 2.8-4.5-1.5-3.5-11.7 2.7-25.9-5-33.9-18.6-5.9-10.2-8.1-27.3-5.3-43.2 1.1-6.3 2.2-7.8 3.2-4.6.3 1 1.8 4.9 3.2 8.8 1.5 3.8 3.5 11.7 4.4 17.5l1.7 10.5 5.2-10.5c5.9-12 8.1-19.3 8.9-30.1.7-9.2-.9-18.9-4.6-28.4-3.4-8.8-8.3-16.2-17.9-27.4-4.1-4.7-9.5-11.7-12-15.6-4.8-7.2-10.6-19.9-10-21.6.2-.6 2.4 1.6 5 4.9 2.5 3.3 9.8 10.3 16.2 15.6 12.2 10.2 17.9 16.8 21.9 25.4 1.4 2.9 2.7 5 3 4.5 1.7-2.9 3.1-13.2 3-21.3-.2-16.6-5-27-20.3-43.4-4.9-5.4-10.3-11.6-11.9-13.9-3.2-4.7-7.1-12.1-7.1-13.5 0-.6 3.9-.7 9.2-.4l9.1.5-4.4-3.9c-6.1-5.5-8.9-8.7-13.2-15.7-5.5-8.9-7.6-16.8-8.7-33.1-2.6-35.9-15.1-62.8-41.4-89.2-33.2-33.1-75.4-47.8-108.6-37.8-7.3 2.2-10 2.1-19.7-.9-8.2-2.6-25.7-4.2-34.3-3.1m46 52.1c0 15.1 6.4 20.6 28.5 24.5 19.9 3.5 31.9 8.7 41.6 18 9.3 9 14.1 18.1 18.9 35.8 6.1 22.9 12.9 32.6 27.9 40.4 12.4 6.4 13.1 7.5 13.1 19.6 0 9.2-.2 9.9-2.9 13.3-2.5 3.2-2.9 4.8-3.5 12.9-1.4 18.3-7 37.6-17.1 59.7-8.7 19-15.6 30.2-24.4 39.4-8.3 8.8-8.7 8.8-10.7 2-1.8-6.6-5.5-13.5-9.3-17.6-7-7.7-20.6-13.7-35.5-15.8-4.7-.7-8.6-1.5-8.6-1.9s1.1-1.5 2.5-2.4c2.9-1.9 3.5-7 .9-8-2.8-1.1-4.9-.6-11.4 2.6-5 2.5-8.1 3.3-13.8 3.6-6.7.4-7.8.2-14.5-3.2-8-3.9-10.8-4.4-13-2.1-2 1.9-1.1 5 2.1 7.5 1.4 1.1 2.3 2.2 2.1 2.4-.2.3-4.2 1-8.8 1.6-23.4 3.2-39.1 14.4-43.8 31.3-.9 3.2-2.3 6.2-3.1 6.4-1.9.8-12.2-9.6-17.6-17.7-14.7-22-29.2-63.2-31.3-89-.4-5.8-1.1-8.1-2.8-10-3.8-4.2-4.5-6.6-4.5-15.2 0-12.6 2.4-15.6 15.5-19.3 14.6-4.2 26.7-11.6 36.6-22.3 8-8.6 10.8-13.7 15.9-28.8 7.1-20.8 15.5-30.2 33.6-37.8 14.4-6 17.6-7.8 23.4-13.6 4-3.9 6.6-7.7 9-13.2 1.9-4.3 3.8-7.8 4.3-7.8.4 0 .7 2.1.7 4.7m-32.2.4c-.2.6-3.5 2.1-7.3 3.3-8.6 2.7-19.5 9-26.3 15.1-10.3 9.2-14.7 18.1-22.1 44-3.8 13.3-13.6 25-26.2 31.1-6.7 3.3-13.9 5.1-13.9 3.6 0-.5 1.5-1.6 3.3-2.3 1.7-.7 6.8-4.9 11.2-9.4 9.8-9.7 13.2-16.2 17.5-32.8 4-15.9 8.5-24.3 18-33.7 10.3-10.4 22.2-16.3 37.8-19 6.9-1.1 8.4-1.1 8 .1M124 260.9c0 6 3.9 22 6.8 27.7 2.4 4.8 6.2 19.2 6.2 23.4 0 1.7-4.9 1.1-9-1-9.6-4.9-15.6-20.2-13.2-33.5 1.3-6.8 6.6-19.5 8.2-19.5.6 0 1 1.3 1 2.9m274.8 6.7c3 7.3 3.2 8.6 3 17.4-.4 11.8-3.6 19.4-10 24-3.8 2.8-10.3 4.9-11.4 3.7-1.3-1.2 3-19.5 5.6-24.2 2.6-4.6 4.9-13.2 6.5-24.8.4-3 1.1-4.7 1.8-4.4.7.2 2.7 3.9 4.5 8.3M237.4 329c13.7 1.4 32.9 1.2 47.1-.5 17.5-2.1 21.8-2 25.1.8 2 1.8 2.8 3.5 3.1 7.3 1.1 11.1-6 32-14.3 42.1-3.6 4.4-9.8 8.3-13.1 8.3-3.5 0-6.3-3-7.9-8.5-2.3-8-3.4-8.5-19-8.5-15.5 0-16.5.5-19.2 9-5.8 18.5-26.6 2-33.2-26.5-2.8-12.1-2.7-18.5.5-22.4 3-3.5 4.7-3.9 14-2.9 3.9.4 11.4 1.2 16.9 1.8" />
  <path style="fill:url(#godui-sunglasses)" d="M192 187.5c-3.6.8-10.5 2.8-15.5 4.4-4.9 1.6-13 3.5-18 4.1-13.4 1.8-21.7 3.6-22.7 5.2-.5.7-.7 3.9-.5 7.1.3 5.1.7 6.2 3.4 8.3 3.3 2.6 4.6 5.2 6.3 13.4 6.5 31.1 16.2 39.6 46 40.7 34.6 1.3 47.4-8.4 56-42.6 2-7.9 7.8-11.4 15.1-9.2 4.8 1.5 6.4 3.8 9 13.2 2.8 10.1 9.2 23.2 13.5 27.4 7.8 7.8 19.9 11.5 38 11.5 11.8 0 22.9-2.1 30.1-5.9 8.9-4.6 14.6-14.4 18.9-33 2.5-10.5 3.1-11.9 6.6-15.4 3.4-3.4 3.8-4.3 3.8-9 0-2.9-.4-5.8-.9-6.5-.9-1.5-9.6-3.6-19.6-4.7-3.3-.4-10.4-2.3-15.8-4.1-5.5-1.8-13.5-4-17.9-4.9-9.4-1.8-25.5-2-33-.4-10.3 2.2-18.8 8.2-17.3 12.1 1.7 4.3-25.3 6-36.3 2.4-5.5-1.9-6.1-2.6-3.7-4.6 1.8-1.5 2-5.4.3-6.7-5-3.8-33.7-5.5-45.8-2.8" />
  <path d="M218.3 340.6c-1.3 3.6 10.3 11.5 22.2 15 8.8 2.6 28.7 2.3 37.5-.5 7.9-2.5 16.6-7.6 19.4-11.4 3.2-4.3 1-5.2-5.7-2.2-10.3 4.5-18.9 6-34.2 5.9-14.6-.1-21.3-1.3-33.3-6.2-4.6-1.9-5.3-2-5.9-.6" />
</svg>
